<svg width="50" height="50" viewBox="0 0 50 50" fill="none" xmlns="http://www.w3.org/2000/svg">
<path d="M25 41.6667C34.1666 41.6667 41.6666 34.1667 41.6666 25C41.6666 15.8333 34.1666 8.33332 25 8.33332C15.8333 8.33332 8.33329 15.8333 8.33329 25C8.33329 34.1667 15.8333 41.6667 25 41.6667ZM25 4.16666C36.4583 4.16666 45.8333 13.5417 45.8333 25C45.8333 36.4583 36.4583 45.8333 25 45.8333C13.5416 45.8333 4.16663 36.4583 4.16663 25C4.16663 13.5417 13.5416 4.16666 25 4.16666ZM26.0416 26.6667L16.0416 32.5L14.5833 29.5833L22.9166 24.7917V14.5833H26.0416V26.6667Z" fill="#16722A"/>
</svg>
