<svg width="51" height="51" viewBox="0 0 51 51" fill="none" xmlns="http://www.w3.org/2000/svg">
<path fill-rule="evenodd" clip-rule="evenodd" d="M35.4237 27.9012C38.335 29.8775 40.375 32.555 40.375 36.125V42.5H48.875V36.125C48.875 31.4925 41.2887 28.7512 35.4237 27.9012Z" fill="#16722A"/>
<path d="M19.125 25.5C23.8194 25.5 27.625 21.6944 27.625 17C27.625 12.3056 23.8194 8.5 19.125 8.5C14.4306 8.5 10.625 12.3056 10.625 17C10.625 21.6944 14.4306 25.5 19.125 25.5Z" fill="#16722A"/>
<path fill-rule="evenodd" clip-rule="evenodd" d="M31.875 25.5C36.5713 25.5 40.375 21.6962 40.375 17C40.375 12.3037 36.5713 8.5 31.875 8.5C30.8762 8.5 29.9412 8.7125 29.0487 9.01C30.8774 11.2715 31.8749 14.0917 31.8749 17C31.8749 19.9083 30.8774 22.7285 29.0487 24.99C29.9412 25.2875 30.8762 25.5 31.875 25.5ZM19.125 27.625C13.4513 27.625 2.125 30.4725 2.125 36.125V42.5H36.125V36.125C36.125 30.4725 24.7987 27.625 19.125 27.625Z" fill="#16722A"/>
</svg>
